<?xml version="1.0" encoding="utf-8"?>
<!-- Generator: Adobe Illustrator 25.2.1, SVG Export Plug-In . SVG Version: 6.00 Build 0)  -->
<!DOCTYPE svg PUBLIC "-//W3C//DTD SVG 1.1//EN" "http://www.w3.org/Graphics/SVG/1.1/DTD/svg11.dtd" [
	<!ENTITY ns_extend "http://ns.adobe.com/Extensibility/1.0/">
	<!ENTITY ns_ai "http://ns.adobe.com/AdobeIllustrator/10.0/">
	<!ENTITY ns_graphs "http://ns.adobe.com/Graphs/1.0/">
	<!ENTITY ns_vars "http://ns.adobe.com/Variables/1.0/">
	<!ENTITY ns_imrep "http://ns.adobe.com/ImageReplacement/1.0/">
	<!ENTITY ns_sfw "http://ns.adobe.com/SaveForWeb/1.0/">
	<!ENTITY ns_custom "http://ns.adobe.com/GenericCustomNamespace/1.0/">
	<!ENTITY ns_adobe_xpath "http://ns.adobe.com/XPath/1.0/">
]>
<svg version="1.1" xmlns:x="&ns_extend;" xmlns:i="&ns_ai;" xmlns:graph="&ns_graphs;"
	 xmlns="http://www.w3.org/2000/svg" xmlns:xlink="http://www.w3.org/1999/xlink" x="0px" y="0px" viewBox="0 0 127 38.1"
	 style="enable-background:new 0 0 127 38.1;" xml:space="preserve">
<style type="text/css">
	.st0{fill:#2C337D;}
</style>
<metadata>
	<sfw  xmlns="&ns_sfw;">
		<slices></slices>
		<sliceSourceBounds  bottomLeftOrigin="true" height="16383" width="16383" x="-7893" y="-8613"></sliceSourceBounds>
	</sfw>
</metadata>
<g id="Logo_Grid">
</g>
<g id="Layer_4">
</g>
<g id="Layer_1">
	<g>
		<g>
			<path class="st0" d="M41.5,1.8h1.2l1.9,5.4h0.1l1.8-5.4h1.2l1.7,6.9h-1L47,3.1H47l-2,5.8h-0.7l-2.1-5.8h-0.1l-1.4,5.6h-1
				L41.5,1.8z"/>
			<path class="st0" d="M50.5,1.8h1v6.9h-1V1.8z"/>
			<path class="st0" d="M56.9,1.8h0.9l0,3.4h0.1l2.9-3.4H62l-3.1,3.5l3.3,3.4H61l-3.1-3.2h-0.1l0,3.2h-0.9l0-3.2h-0.1l-3.1,3.2h-1.2
				l3.3-3.4l-3.1-3.5h1.2l2.9,3.4h0.1L56.9,1.8z"/>
			<path class="st0" d="M64.2,1.8v3H69v-3h1v6.9h-1V5.6h-4.7v3.1h-1V1.8H64.2z"/>
			<path class="st0" d="M76.3,7h-3.6L72,8.7h-1L74,1.8H75l3,6.9h-1L76.3,7z M73.1,6.2h3l-1.5-3.5h-0.1L73.1,6.2z"/>
			<path class="st0" d="M79.2,1.8h2.5c1.6,0,3.1,0.7,3.1,2.1c0,1.5-1.5,2.2-3.1,2.2h-1.5v2.6h-1V1.8z M80.1,5.3l1.5,0
				c1,0,2.1-0.3,2.1-1.3s-1.1-1.3-2.1-1.3l-1.6,0V5.3z"/>
			<path class="st0" d="M93.6,5.3c0,2.3-1.9,3.6-3.9,3.6c-2.1,0-3.9-1.4-3.9-3.6c0-2,1.6-3.7,3.9-3.7C92,1.6,93.6,3.3,93.6,5.3z
				 M86.7,5.3c0,1.6,1.2,2.8,2.9,2.8s2.9-1.2,2.9-2.8c0-1.8-1.4-2.9-2.9-2.9C88.1,2.4,86.7,3.4,86.7,5.3z"/>
			<path class="st0" d="M94.4,7.9c0.6,0,1.1-0.3,1.2-1.6l0.5-4.5h4.7v6.1h1l0,2.2h-0.9V8.7h-5.7V10h-0.9l0-2.2H94.4z M99.8,2.6h-2.9
				l-0.4,3.8c-0.1,0.7-0.3,1.2-0.6,1.5h3.8V2.6z"/>
			<path class="st0" d="M103.9,1.8v3h4.7v-3h1v6.9h-1V5.6h-4.7v3.1h-1V1.8H103.9z"/>
			<path class="st0" d="M118.3,8.7h-0.9V3h-0.1l-5.1,5.7h-1V1.8h0.9v5.7h0.1l5.1-5.7h1V8.7z"/>
			<path class="st0" d="M127,8.7h-0.9V3h-0.1l-5.1,5.7h-1V1.8h0.9v5.7h0.1l5.1-5.7h1V8.7z M124.4,0h0.6c0,0.8-0.6,1.4-1.5,1.4
				c-0.9,0-1.5-0.6-1.5-1.4h0.6c0,0.2,0.2,0.7,0.9,0.7C124.2,0.7,124.4,0.2,124.4,0z"/>
			<path class="st0" d="M43.5,23.4v-1.1c-1.8-0.1-3.7-1.1-3.7-3c0-1.8,1.8-2.9,3.7-3v-1h0.9v1c2,0.2,3.7,1.4,3.7,3
				c0,1.7-1.6,2.8-3.7,3v1.1H43.5z M43.5,21.4v-4.4c-1.6,0.1-2.7,0.9-2.7,2.2C40.8,20.6,42,21.3,43.5,21.4z M44.4,17.1v4.3
				c1.5-0.1,2.7-0.9,2.7-2.1C47.2,18,45.9,17.2,44.4,17.1z"/>
			<path class="st0" d="M57,19.3c0,2.3-1.9,3.6-3.9,3.6c-2.1,0-3.9-1.4-3.9-3.6c0-2,1.6-3.7,3.9-3.7C55.4,15.6,57,17.3,57,19.3z
				 M50.1,19.3c0,1.6,1.2,2.8,2.9,2.8s2.9-1.2,2.9-2.8c0-1.8-1.4-2.9-2.9-2.9C51.5,16.4,50.1,17.4,50.1,19.3z"/>
			<path class="st0" d="M59.2,15.8v3H64v-3h1v6.9h-1v-3.1h-4.7v3.1h-1v-6.9H59.2z"/>
			<path class="st0" d="M66.4,21.9c0.6,0,1.1-0.3,1.2-1.6l0.5-4.5h4.7v6.1h1l0,2.2h-0.9v-1.3h-5.7v1.3h-0.9l0-2.2H66.4z M71.8,16.6
				h-2.9l-0.4,3.8c-0.1,0.7-0.3,1.2-0.6,1.5h3.8V16.6z"/>
			<path class="st0" d="M40.2,29.8h2.3c1.6,0,2.9,0.6,2.9,1.8c0,0.9-0.9,1.4-1.3,1.5v0.1c0.4,0.1,1.5,0.5,1.5,1.6
				c0,1.2-1.4,1.9-3,1.9h-2.5V29.8z M41.1,32.9l1.4,0c0.8,0,1.9-0.2,1.9-1.1c0-0.9-1-1.1-2-1.1l-1.4,0V32.9z M41.1,35.9l1.6,0
				c1.1,0,2-0.4,2-1.2c0-0.8-1-1.1-1.9-1.1l-1.6,0V35.9z"/>
			<path class="st0" d="M47,29.8h1v6.9h-1V29.8z"/>
			<path class="st0" d="M49.4,35.9c0.6,0,1.1-0.3,1.2-1.6l0.5-4.5h4.7v6.1h1l0,2.2h-0.9v-1.3h-5.7v1.3h-0.9l0-2.2H49.4z M54.8,30.6
				H52l-0.4,3.8c-0.1,0.7-0.3,1.2-0.6,1.5h3.8V30.6z"/>
			<path class="st0" d="M57.9,29.8h2.5c1.6,0,3.1,0.7,3.1,2.1s-1.5,2.2-3.1,2.2h-1.5v2.6h-1V29.8z M58.9,33.3l1.5,0
				c1,0,2.1-0.3,2.1-1.3c0-1-1.1-1.3-2.1-1.3l-1.6,0V33.3z"/>
			<path class="st0" d="M72.3,33.3c0,2.3-1.9,3.6-3.9,3.6c-2.1,0-3.9-1.4-3.9-3.6c0-2,1.6-3.7,3.9-3.7
				C70.7,29.6,72.3,31.3,72.3,33.3z M65.5,33.3c0,1.6,1.2,2.8,2.9,2.8s2.9-1.2,2.9-2.8c0-1.8-1.4-2.9-2.9-2.9
				C66.8,30.4,65.5,31.5,65.5,33.3z"/>
			<path class="st0" d="M73.2,35.9c0.6,0,1.1-0.3,1.2-1.6l0.5-4.5h4.7v6.1h1l0,2.2h-0.9v-1.3h-5.7v1.3h-0.9l0-2.2H73.2z M78.6,30.6
				h-2.9l-0.4,3.8c-0.1,0.7-0.3,1.2-0.6,1.5h3.8V30.6z"/>
			<path class="st0" d="M85.7,29.8h0.9l0,3.4h0.1l2.9-3.4h1.2l-3.1,3.5l3.3,3.4h-1.2l-3.1-3.2h-0.1l0,3.2h-0.9l0-3.2h-0.1l-3.1,3.2
				h-1.2l3.3-3.4l-3.1-3.5h1.2l2.9,3.4h0.1L85.7,29.8z"/>
			<path class="st0" d="M92.1,29.8h5.5v0.8H93v2.2h4.4v0.8H93v2.3h4.7v0.8h-5.7V29.8z"/>
			<path class="st0" d="M99.9,29.8v3h4.7v-3h1v6.9h-1v-3.1h-4.7v3.1h-1v-6.9H99.9z"/>
			<path class="st0" d="M108.2,29.8v3h4.7v-3h1v6.9h-1v-3.1h-4.7v3.1h-1v-6.9H108.2z"/>
			<path class="st0" d="M121.2,36.7h-0.9v-3h-1.5c-1.3,1.6-2.5,3-2.5,3H115c0,0,1.5-1.6,2.7-3.1c-1.1-0.2-2-0.9-2-1.9
				c0-1.4,1.6-1.9,2.9-1.9h2.6V36.7z M120.2,30.6l-1.7,0c-0.9,0-1.9,0.3-1.9,1.2c0,0.8,0.9,1.1,1.9,1.1l1.7,0V30.6z"/>
		</g>
		<g>
			<path class="st0" d="M9.6,36.7H0v-35h9.6V36.7z M0.8,35.9h8V2.6h-8V35.9z"/>
			<path class="st0" d="M19.7,37.1c-4.7,0-8.5-3.8-8.5-8.5s3.8-8.5,8.5-8.5s8.5,3.8,8.5,8.5S24.4,37.1,19.7,37.1z M19.7,20.9
				c-4.2,0-7.7,3.4-7.7,7.7s3.4,7.7,7.7,7.7s7.7-3.4,7.7-7.7S24,20.9,19.7,20.9z"/>
			<g>
				<path class="st0" d="M19.7,18.4c-4.7,0-8.5-3.8-8.5-8.5s3.8-8.5,8.5-8.5s8.5,3.8,8.5,8.5S24.4,18.4,19.7,18.4z M19.7,2.3
					c-4.2,0-7.7,3.4-7.7,7.7s3.4,7.7,7.7,7.7c4.2,0,7.7-3.4,7.7-7.7S24,2.3,19.7,2.3z"/>
				<path class="st0" d="M19.7,15.8c-3.3,0-5.9-2.6-5.9-5.9c0-3.3,2.6-5.9,5.9-5.9c3.3,0,5.9,2.6,5.9,5.9
					C25.6,13.2,23,15.8,19.7,15.8z M19.7,4.8c-2.8,0-5.1,2.3-5.1,5.1s2.3,5.1,5.1,5.1s5.1-2.3,5.1-5.1S22.6,4.8,19.7,4.8z"/>
				<path class="st0" d="M19.7,13.1c-1.8,0-3.2-1.4-3.2-3.2s1.4-3.2,3.2-3.2S23,8.2,23,9.9S21.5,13.1,19.7,13.1z M19.7,7.5
					c-1.3,0-2.4,1.1-2.4,2.4s1.1,2.4,2.4,2.4s2.4-1.1,2.4-2.4S21.1,7.5,19.7,7.5z"/>
				<path class="st0" d="M19.7,10.6c-0.4,0-0.7-0.3-0.7-0.7s0.3-0.7,0.7-0.7s0.7,0.3,0.7,0.7S20.1,10.6,19.7,10.6z M19.7,9.8
					c-0.1,0-0.1,0.1-0.1,0.1c0,0.2,0.3,0.2,0.3,0C19.9,9.9,19.8,9.8,19.7,9.8z"/>
			</g>
		</g>
		<circle class="st0" cx="19.8" cy="9.9" r="0.3"/>
	</g>
</g>
<g id="Layer_2">
</g>
</svg>
